<svg xmlns="http://www.w3.org/2000/svg" width="440" height="280" viewBox="0 0 440 280" role="img" aria-labelledby="title desc">
  <title id="title">RoomList Chrome Web Store promotional tile</title>
  <desc id="desc">RoomList organizes home products from multiple stores by room</desc>
  <defs>
    <linearGradient id="bg" x1="0" y1="0" x2="1" y2="1">
      <stop offset="0" stop-color="#25382C"/>
      <stop offset="1" stop-color="#45624E"/>
    </linearGradient>
    <filter id="shadow" x="-30%" y="-30%" width="160%" height="160%">
      <feDropShadow dx="0" dy="10" stdDeviation="12" flood-color="#15231A" flood-opacity=".28"/>
    </filter>
  </defs>
  <rect width="440" height="280" fill="url(#bg)"/>
  <circle cx="382" cy="44" r="90" fill="#D9A56D" opacity=".16"/>
  <circle cx="55" cy="260" r="96" fill="#FFFFFF" opacity=".05"/>
  <g transform="translate(34 35)">
    <rect width="54" height="54" rx="14" fill="#FFFFFF"/>
    <rect x="6" y="6" width="42" height="42" rx="11" fill="none" stroke="#C6A668" stroke-width="1.8"/>
    <path d="M12 13 21 21h27M21 21v23M12 45l9-7h5M37 38h11" fill="none" stroke="#C6A668" stroke-width="1.6" stroke-linecap="round"/>
    <path d="M18 20h4l3 17h17l4-13H24" fill="none" stroke="#464A47" stroke-width="3" stroke-linecap="round" stroke-linejoin="round"/>
    <circle cx="29" cy="42" r="2.4" fill="#464A47"/><circle cx="40" cy="42" r="2.4" fill="#464A47"/>
    <path d="M29 26c-3-3-7 .5-4 4 1 1.5 2.5 2.7 4 3.8 1.6-1.1 3-2.3 4-3.8 3-3.5-1-7-4-4Z" fill="#45624E"/>
  </g>
  <text x="104" y="68" font-family="Avenir Next, PingFang TC, system-ui, sans-serif" font-size="27" font-weight="700" fill="#FFFFFF">RoomList</text>
  <text x="104" y="91" font-family="Avenir Next, PingFang TC, system-ui, sans-serif" font-size="13" fill="#DCE6DF">跨電商空間採購清單</text>
  <g transform="translate(34 120)" filter="url(#shadow)">
    <rect width="372" height="124" rx="18" fill="#FFFFFF"/>
    <text x="20" y="29" font-family="PingFang TC, system-ui, sans-serif" font-size="12" font-weight="700" fill="#25382C">我的採購清單</text>
    <rect x="20" y="43" width="64" height="22" rx="11" fill="#45624E"/>
    <text x="40" y="58" font-family="PingFang TC, system-ui, sans-serif" font-size="10" font-weight="600" fill="#FFFFFF">客廳</text>
    <rect x="90" y="43" width="64" height="22" rx="11" fill="#F1F3F1"/>
    <text x="110" y="58" font-family="PingFang TC, system-ui, sans-serif" font-size="10" font-weight="600" fill="#484848">臥室</text>
    <line x1="20" y1="80" x2="352" y2="80" stroke="#DFDFDF"/>
    <rect x="20" y="91" width="88" height="7" rx="3.5" fill="#5B605C"/>
    <rect x="20" y="104" width="132" height="5" rx="2.5" fill="#C7CBC8"/>
    <rect x="274" y="89" width="78" height="25" rx="12.5" fill="#D9A56D"/>
    <text x="295" y="106" font-family="PingFang TC, system-ui, sans-serif" font-size="10" font-weight="700" fill="#25382C">加入清單</text>
  </g>
</svg>
