<svg xmlns="http://www.w3.org/2000/svg" width="3840" height="2160" viewBox="0 0 1280 720" role="img" aria-labelledby="title desc">
  <title id="title">RoomList YouTube video thumbnail</title>
  <desc id="desc">RoomList organizes home products from multiple stores into room-based shopping lists</desc>
  <defs>
    <linearGradient id="background" x1="0" y1="0" x2="1" y2="1">
      <stop offset="0" stop-color="#25382C"/>
      <stop offset="1" stop-color="#45624E"/>
    </linearGradient>
    <linearGradient id="button" x1="0" y1="0" x2="1" y2="0">
      <stop offset="0" stop-color="#D9A56D"/>
      <stop offset="1" stop-color="#C6A668"/>
    </linearGradient>
    <filter id="shadow" x="-30%" y="-30%" width="170%" height="175%">
      <feDropShadow dx="0" dy="24" stdDeviation="25" flood-color="#15231A" flood-opacity=".38"/>
    </filter>
  </defs>

  <rect width="1280" height="720" fill="url(#background)"/>
  <circle cx="1162" cy="72" r="275" fill="#D9A56D" opacity=".14"/>
  <circle cx="54" cy="728" r="270" fill="#FFFFFF" opacity=".045"/>
  <path d="M930 0h350v230L1080 114Z" fill="#FFFFFF" opacity=".026"/>

  <g transform="translate(72 70)">
    <rect width="78" height="78" rx="21" fill="#FFFFFF"/>
    <rect x="8" y="8" width="62" height="62" rx="17" fill="none" stroke="#C6A668" stroke-width="2.7"/>
    <path d="M16 18 30 30h40M30 30v34M16 66l14-10h8M54 56h16" fill="none" stroke="#C6A668" stroke-width="2.4" stroke-linecap="round"/>
    <path d="M25 29h6l4 24h26l6-19H34" fill="none" stroke="#464A47" stroke-width="4.5" stroke-linecap="round" stroke-linejoin="round"/>
    <circle cx="42" cy="60" r="3.5" fill="#464A47"/><circle cx="59" cy="60" r="3.5" fill="#464A47"/>
    <path d="M43 37c-4.4-4.5-10.5.7-5.9 5.9 1.5 2.2 3.7 4 5.9 5.6 2.3-1.6 4.5-3.4 5.9-5.6 4.6-5.2-1.5-10.4-5.9-5.9Z" fill="#45624E"/>
  </g>

  <text x="171" y="111" font-family="Avenir Next, PingFang TC, system-ui, sans-serif" font-size="43" font-weight="700" fill="#FFFFFF">RoomList</text>
  <text x="171" y="143" font-family="PingFang TC, system-ui, sans-serif" font-size="18" font-weight="500" fill="#DCE6DF">跨電商空間採購清單</text>

  <text x="72" y="260" font-family="PingFang TC, system-ui, sans-serif" font-size="53" font-weight="750" fill="#FFFFFF">收藏不同電商商品</text>
  <text x="72" y="328" font-family="PingFang TC, system-ui, sans-serif" font-size="53" font-weight="750" fill="#FFFFFF">一次整理每個空間</text>
  <text x="72" y="389" font-family="PingFang TC, system-ui, sans-serif" font-size="21" font-weight="500" fill="#DCE6DF">跨網站收藏・空間分類・預算加總・PDF 匯出</text>

  <g transform="translate(72 445)">
    <rect width="211" height="58" rx="29" fill="url(#button)"/>
    <path d="M28 20h5l3 18h19l5-14H35" fill="none" stroke="#25382C" stroke-width="2.8" stroke-linecap="round" stroke-linejoin="round"/>
    <circle cx="41" cy="43" r="2.5" fill="#25382C"/><circle cx="54" cy="43" r="2.5" fill="#25382C"/>
    <text x="74" y="37" font-family="PingFang TC, system-ui, sans-serif" font-size="18" font-weight="700" fill="#25382C">建立採購清單</text>
  </g>

  <g transform="translate(552 107)" filter="url(#shadow)">
    <rect width="652" height="503" rx="28" fill="#FFFFFF"/>
    <rect width="652" height="82" rx="28" fill="#F7F8F7"/>
    <path d="M0 50h652v32H0Z" fill="#F7F8F7"/>
    <text x="34" y="39" font-family="PingFang TC, system-ui, sans-serif" font-size="21" font-weight="700" fill="#25382C">我的採購清單</text>
    <text x="34" y="64" font-family="PingFang TC, system-ui, sans-serif" font-size="12" fill="#6E746F">4 項商品・NT$15,747</text>
    <circle cx="594" cy="41" r="18" fill="#FFFFFF" stroke="#DFDFDF"/>
    <path d="M586 41h16M594 33v16" stroke="#45624E" stroke-width="2" stroke-linecap="round"/>

    <g transform="translate(30 105)">
      <rect width="82" height="32" rx="16" fill="#45624E"/>
      <text x="27" y="21" font-family="PingFang TC, system-ui, sans-serif" font-size="12" font-weight="700" fill="#FFFFFF">全部</text>
      <rect x="92" width="82" height="32" rx="16" fill="#F1F3F1"/>
      <text x="119" y="21" font-family="PingFang TC, system-ui, sans-serif" font-size="12" font-weight="600" fill="#484848">客廳</text>
      <rect x="184" width="82" height="32" rx="16" fill="#F1F3F1"/>
      <text x="211" y="21" font-family="PingFang TC, system-ui, sans-serif" font-size="12" font-weight="600" fill="#484848">臥室</text>
    </g>

    <g transform="translate(30 169)">
      <rect width="58" height="58" rx="11" fill="#E7ECE8"/>
      <path d="M14 40 28 24l9 9 7-8v20H14Z" fill="#8DB49A"/>
      <circle cx="42" cy="18" r="4.5" fill="#D9A56D"/>
      <text x="78" y="21" font-family="PingFang TC, system-ui, sans-serif" font-size="15" font-weight="700" fill="#25382C">客廳家具商品</text>
      <text x="78" y="45" font-family="PingFang TC, system-ui, sans-serif" font-size="11" fill="#747A75">來源網站・客廳・數量 1</text>
      <text x="574" y="30" text-anchor="end" font-family="Avenir Next, system-ui, sans-serif" font-size="16" font-weight="700" fill="#25382C">NT$5,618</text>
      <line y1="82" x2="592" y2="82" stroke="#E5E7E5"/>
    </g>

    <g transform="translate(30 273)">
      <rect width="58" height="58" rx="11" fill="#F2EEE8"/>
      <path d="M13 41h31V25l-9-8-9 10-6-5Z" fill="#C6A668" opacity=".82"/>
      <text x="78" y="21" font-family="PingFang TC, system-ui, sans-serif" font-size="15" font-weight="700" fill="#25382C">臥室家居商品</text>
      <text x="78" y="45" font-family="PingFang TC, system-ui, sans-serif" font-size="11" fill="#747A75">來源網站・臥室・數量 2</text>
      <text x="574" y="30" text-anchor="end" font-family="Avenir Next, system-ui, sans-serif" font-size="16" font-weight="700" fill="#25382C">NT$8,139</text>
      <line y1="82" x2="592" y2="82" stroke="#E5E7E5"/>
    </g>

    <g transform="translate(30 391)">
      <text y="20" font-family="PingFang TC, system-ui, sans-serif" font-size="13" fill="#747A75">總金額</text>
      <text x="592" y="25" text-anchor="end" font-family="Avenir Next, system-ui, sans-serif" font-size="27" font-weight="700" fill="#25382C">NT$15,747</text>
      <rect y="42" width="592" height="48" rx="24" fill="#45624E"/>
      <text x="296" y="73" text-anchor="middle" font-family="PingFang TC, system-ui, sans-serif" font-size="15" font-weight="700" fill="#FFFFFF">匯出 PDF 採購清單</text>
    </g>
  </g>
</svg>
