<?xml version="1.0" encoding="UTF-8"?>
<svg xmlns="http://www.w3.org/2000/svg" viewBox="0 0 128 128" role="img" aria-labelledby="title">
  <title id="title">RoomList small icon</title>
  <rect width="128" height="128" rx="28" fill="#FFFFFF"/>
  <rect x="8" y="9" width="112" height="110" rx="25" fill="none" stroke="#C6A668" stroke-width="5"/>
  <path d="M16 20 35 35h72M35 35v54" fill="none" stroke="#C6A668" stroke-width="4" stroke-linecap="round" stroke-linejoin="round"/>
  <g transform="translate(-9.75 -13.8) scale(1.15)">
    <path d="M38 52h6l6 32h39L96 59H47" fill="none" stroke="#464A47" stroke-width="7" stroke-linecap="round" stroke-linejoin="round"/>
    <circle cx="57" cy="92" r="6" fill="#464A47"/>
    <circle cx="84" cy="92" r="6" fill="#464A47"/>
    <path d="M59 49h24l12 12-12 12H59a5 5 0 0 1-5-5V54a5 5 0 0 1 5-5Z" fill="#5B605C"/>
    <path d="M69 55c-4.2-4.5-10.6-1.2-10.6 4.3 0 4.8 4.1 8 10.6 12.3 6.5-4.3 10.6-7.5 10.6-12.3 0-5.5-6.4-8.8-10.6-4.3Z" fill="#FFFFFF"/>
  </g>
</svg>
